<svg xmlns="http://www.w3.org/2000/svg" xmlns:xlink="http://www.w3.org/1999/xlink" width="500" zoomAndPan="magnify" viewBox="0 0 375 374.999991" height="500" preserveAspectRatio="xMidYMid meet" version="1.2"><defs><clipPath id="c4f2fcb3cc"><path d="M 110 112 L 361 112 L 361 282.609375 L 110 282.609375 Z M 110 112 "/></clipPath><clipPath id="1cd09cdc29"><path d="M 308.25 164.023438 C 298.839844 133.691406 270.703125 112.800781 238.632812 112.800781 C 206.566406 112.800781 180.488281 132.121094 170.078125 160.878906 C 169.152344 163.429688 170.472656 166.257812 173.027344 167.179688 C 175.585938 168.105469 178.40625 166.785156 179.328125 164.226562 C 188.335938 139.351562 212.171875 122.636719 238.632812 122.636719 C 267.394531 122.636719 292.5 142.058594 299.683594 169.863281 C 300.222656 171.941406 302.035156 173.425781 304.175781 173.542969 C 330.480469 174.972656 351.085938 196.746094 351.085938 223.113281 C 351.085938 249.484375 328.816406 272.765625 301.4375 272.765625 L 133.894531 272.765625 C 128.109375 272.765625 122.390625 271.289062 117.363281 268.5 C 114.988281 267.183594 111.996094 268.042969 110.675781 270.417969 C 109.359375 272.796875 110.21875 275.789062 112.59375 277.105469 C 119.078125 280.699219 126.441406 282.601562 133.894531 282.601562 L 301.4375 282.601562 C 334.238281 282.601562 360.921875 255.917969 360.921875 223.113281 C 360.921875 192.710938 338.0625 167.410156 308.242188 164.015625 Z M 308.25 164.023438 "/></clipPath><clipPath id="0d8bc4b382"><path d="M 153 177 L 216 177 L 216 188 L 153 188 Z M 153 177 "/></clipPath><clipPath id="fa38aef0ef"><path d="M 158.527344 187.175781 L 210.527344 187.175781 C 213.246094 187.175781 215.449219 184.976562 215.449219 182.257812 C 215.449219 179.542969 213.246094 177.339844 210.527344 177.339844 L 158.527344 177.339844 C 155.8125 177.339844 153.609375 179.542969 153.609375 182.257812 C 153.609375 184.976562 155.8125 187.175781 158.527344 187.175781 Z M 158.527344 187.175781 "/></clipPath><clipPath id="d1bcd6153d"><path d="M 221 177 L 252 177 L 252 188 L 221 188 Z M 221 177 "/></clipPath><clipPath id="4225bb3df9"><path d="M 246.949219 187.175781 C 249.664062 187.175781 251.867188 184.976562 251.867188 182.257812 C 251.867188 179.542969 249.664062 177.339844 246.949219 177.339844 L 226.65625 177.339844 C 223.941406 177.339844 221.738281 179.542969 221.738281 182.257812 C 221.738281 184.976562 223.941406 187.175781 226.65625 187.175781 Z M 246.949219 187.175781 "/></clipPath><clipPath id="d33df2b4bd"><path d="M 220 195 L 236 195 L 236 206 L 220 206 Z M 220 195 "/></clipPath><clipPath id="8feb0e03b5"><path d="M 220.035156 200.511719 C 220.035156 203.226562 222.238281 205.429688 224.953125 205.429688 L 231.039062 205.429688 C 233.753906 205.429688 235.957031 203.226562 235.957031 200.511719 C 235.957031 197.796875 233.753906 195.59375 231.039062 195.59375 L 224.953125 195.59375 C 222.238281 195.59375 220.035156 197.796875 220.035156 200.511719 Z M 220.035156 200.511719 "/></clipPath><clipPath id="8e7a4da961"><path d="M 271 213 L 290 213 L 290 224 L 271 224 Z M 271 213 "/></clipPath><clipPath id="256911cf25"><path d="M 284.375 223.691406 C 287.09375 223.691406 289.292969 221.488281 289.292969 218.773438 C 289.292969 216.054688 287.09375 213.855469 284.375 213.855469 L 276.277344 213.855469 C 273.5625 213.855469 271.359375 216.054688 271.359375 218.773438 C 271.359375 221.488281 273.5625 223.691406 276.277344 223.691406 Z M 284.375 223.691406 "/></clipPath><clipPath id="0422d6f0c0"><path d="M 251 250 L 270 250 L 270 261 L 251 261 Z M 251 250 "/></clipPath><clipPath id="03d808428e"><path d="M 251.210938 255.292969 C 251.210938 258.007812 253.414062 260.210938 256.128906 260.210938 L 264.230469 260.210938 C 266.945312 260.210938 269.148438 258.007812 269.148438 255.292969 C 269.148438 252.578125 266.945312 250.375 264.230469 250.375 L 256.128906 250.375 C 253.414062 250.375 251.210938 252.578125 251.210938 255.292969 Z M 251.210938 255.292969 "/></clipPath><clipPath id="a2accf375c"><path d="M 13.199219 227 L 139 227 L 139 248 L 13.199219 248 Z M 13.199219 227 "/></clipPath><clipPath id="454b62c3fa"><path d="M 134.078125 241.953125 C 136.792969 241.953125 138.996094 239.75 138.996094 237.03125 C 138.996094 234.316406 136.792969 232.113281 134.078125 232.113281 L 32.28125 232.113281 C 30.5625 229.074219 27.308594 227.015625 23.566406 227.015625 C 18.03125 227.015625 13.554688 231.5 13.554688 237.023438 C 13.554688 242.550781 18.039062 247.035156 23.566406 247.035156 C 27.308594 247.035156 30.5625 244.984375 32.28125 241.941406 L 134.078125 241.941406 Z M 134.078125 241.953125 "/></clipPath><clipPath id="a1dab8f158"><path d="M 144 232 L 220 232 L 220 242 L 144 242 Z M 144 232 "/></clipPath><clipPath id="eb80e752f6"><path d="M 149.804688 232.113281 C 147.085938 232.113281 144.882812 234.316406 144.882812 237.03125 C 144.882812 239.75 147.085938 241.953125 149.804688 241.953125 L 214.972656 241.953125 C 217.691406 241.953125 219.890625 239.75 219.890625 237.03125 C 219.890625 234.316406 217.691406 232.113281 214.972656 232.113281 Z M 149.804688 232.113281 "/></clipPath><clipPath id="ac4fd71c42"><path d="M 59 245 L 244 245 L 244 266 L 59 266 Z M 59 245 "/></clipPath><clipPath id="dc310a5b12"><path d="M 238.839844 260.210938 C 241.554688 260.210938 243.757812 258.007812 243.757812 255.292969 C 243.757812 252.578125 241.554688 250.375 238.839844 250.375 L 78.363281 250.375 C 76.640625 247.335938 73.390625 245.273438 69.648438 245.273438 C 64.113281 245.273438 59.636719 249.757812 59.636719 255.285156 C 59.636719 260.8125 64.121094 265.296875 69.648438 265.296875 C 73.390625 265.296875 76.640625 263.242188 78.363281 260.203125 L 238.832031 260.203125 Z M 238.839844 260.210938 "/></clipPath><clipPath id="be1e993843"><path d="M 86 172 L 143 172 L 143 193 L 86 193 Z M 86 172 "/></clipPath><clipPath id="34892c38fd"><path d="M 96.804688 192.269531 C 100.546875 192.269531 103.800781 190.21875 105.519531 187.175781 L 137.566406 187.175781 C 140.28125 187.175781 142.484375 184.976562 142.484375 182.257812 C 142.484375 179.542969 140.28125 177.339844 137.566406 177.339844 L 105.519531 177.339844 C 103.800781 174.300781 100.546875 172.242188 96.804688 172.242188 C 91.269531 172.242188 86.792969 176.726562 86.792969 182.25 C 86.792969 187.777344 91.277344 192.261719 96.804688 192.261719 Z M 96.804688 192.269531 "/></clipPath><clipPath id="f9765c2f60"><path d="M 27 190 L 216 190 L 216 211 L 27 211 Z M 27 190 "/></clipPath><clipPath id="b21a98b9b8"><path d="M 37.707031 210.53125 C 41.449219 210.53125 44.699219 208.476562 46.421875 205.4375 L 210.527344 205.4375 C 213.246094 205.4375 215.449219 203.234375 215.449219 200.519531 C 215.449219 197.804688 213.246094 195.601562 210.527344 195.601562 L 46.421875 195.601562 C 44.699219 192.5625 41.449219 190.5 37.707031 190.5 C 32.171875 190.5 27.695312 194.984375 27.695312 200.511719 C 27.695312 206.039062 32.179688 210.523438 37.707031 210.523438 Z M 37.707031 210.53125 "/></clipPath><clipPath id="2510c824d8"><path d="M 49 208 L 266 208 L 266 229 L 49 229 Z M 49 208 "/></clipPath><clipPath id="7977c3d0fa"><path d="M 59.628906 208.761719 C 54.09375 208.761719 49.617188 213.246094 49.617188 218.773438 C 49.617188 224.296875 54.101562 228.78125 59.628906 228.78125 C 63.371094 228.78125 66.625 226.730469 68.34375 223.691406 L 260.171875 223.691406 C 262.886719 223.691406 265.089844 221.488281 265.089844 218.773438 C 265.089844 216.054688 262.886719 213.855469 260.171875 213.855469 L 68.351562 213.855469 C 66.632812 210.8125 63.378906 208.753906 59.636719 208.753906 Z M 59.628906 208.761719 "/></clipPath><clipPath id="ed26df234b"><path d="M 308 130 L 339 130 L 339 161 L 308 161 Z M 308 130 "/></clipPath><clipPath id="ca83f851b4"><path d="M 338.890625 145.730469 C 338.890625 146.71875 338.792969 147.699219 338.601562 148.667969 C 338.40625 149.636719 338.121094 150.578125 337.742188 151.492188 C 337.367188 152.40625 336.902344 153.273438 336.351562 154.09375 C 335.804688 154.917969 335.179688 155.675781 334.480469 156.375 C 333.78125 157.074219 333.019531 157.699219 332.199219 158.25 C 331.375 158.796875 330.507812 159.261719 329.597656 159.640625 C 328.683594 160.019531 327.742188 160.304688 326.769531 160.496094 C 325.800781 160.6875 324.824219 160.785156 323.835938 160.785156 C 322.847656 160.785156 321.867188 160.6875 320.898438 160.496094 C 319.925781 160.304688 318.984375 160.019531 318.074219 159.640625 C 317.160156 159.261719 316.292969 158.796875 315.46875 158.25 C 314.648438 157.699219 313.886719 157.074219 313.1875 156.375 C 312.488281 155.675781 311.867188 154.917969 311.316406 154.09375 C 310.765625 153.273438 310.304688 152.40625 309.925781 151.492188 C 309.546875 150.578125 309.261719 149.636719 309.066406 148.667969 C 308.875 147.699219 308.777344 146.71875 308.777344 145.730469 C 308.777344 144.742188 308.875 143.761719 309.066406 142.792969 C 309.261719 141.824219 309.546875 140.882812 309.925781 139.96875 C 310.304688 139.054688 310.765625 138.1875 311.316406 137.367188 C 311.867188 136.542969 312.488281 135.785156 313.1875 135.085938 C 313.886719 134.386719 314.648438 133.761719 315.46875 133.210938 C 316.292969 132.664062 317.160156 132.199219 318.074219 131.820312 C 318.984375 131.441406 319.925781 131.15625 320.898438 130.964844 C 321.867188 130.769531 322.847656 130.675781 323.835938 130.675781 C 324.824219 130.675781 325.800781 130.769531 326.769531 130.964844 C 327.742188 131.15625 328.683594 131.441406 329.59375 131.820312 C 330.507812 132.199219 331.375 132.664062 332.199219 133.210938 C 333.019531 133.761719 333.78125 134.386719 334.480469 135.085938 C 335.179688 135.785156 335.804688 136.542969 336.351562 137.367188 C 336.902344 138.1875 337.367188 139.054688 337.742188 139.96875 C 338.121094 140.882812 338.40625 141.824219 338.601562 142.792969 C 338.792969 143.761719 338.890625 144.742188 338.890625 145.730469 Z M 338.890625 145.730469 "/></clipPath><clipPath id="689bd1e15f"><path d="M 309 92.109375 L 326 92.109375 L 326 109 L 309 109 Z M 309 92.109375 "/></clipPath><clipPath id="4090748127"><path d="M 325.847656 100.089844 C 325.847656 100.613281 325.796875 101.132812 325.695312 101.648438 C 325.59375 102.160156 325.441406 102.660156 325.238281 103.144531 C 325.039062 103.628906 324.792969 104.089844 324.503906 104.523438 C 324.210938 104.960938 323.878906 105.363281 323.507812 105.734375 C 323.140625 106.105469 322.734375 106.4375 322.300781 106.726562 C 321.863281 107.019531 321.40625 107.265625 320.921875 107.464844 C 320.4375 107.664062 319.9375 107.816406 319.421875 107.917969 C 318.910156 108.019531 318.390625 108.074219 317.867188 108.074219 C 317.34375 108.074219 316.824219 108.019531 316.308594 107.917969 C 315.792969 107.816406 315.296875 107.664062 314.8125 107.464844 C 314.328125 107.265625 313.867188 107.019531 313.429688 106.726562 C 312.996094 106.4375 312.59375 106.105469 312.222656 105.734375 C 311.851562 105.363281 311.519531 104.960938 311.230469 104.523438 C 310.9375 104.089844 310.691406 103.628906 310.492188 103.144531 C 310.292969 102.660156 310.140625 102.160156 310.039062 101.648438 C 309.933594 101.132812 309.882812 100.613281 309.882812 100.089844 C 309.882812 99.566406 309.933594 99.046875 310.039062 98.535156 C 310.140625 98.019531 310.292969 97.519531 310.492188 97.035156 C 310.691406 96.550781 310.9375 96.09375 311.230469 95.65625 C 311.519531 95.21875 311.851562 94.816406 312.222656 94.445312 C 312.59375 94.078125 312.996094 93.746094 313.429688 93.453125 C 313.867188 93.164062 314.328125 92.917969 314.8125 92.714844 C 315.296875 92.515625 315.792969 92.363281 316.308594 92.261719 C 316.824219 92.160156 317.34375 92.109375 317.867188 92.109375 C 318.390625 92.109375 318.910156 92.160156 319.421875 92.261719 C 319.9375 92.363281 320.4375 92.515625 320.921875 92.714844 C 321.40625 92.917969 321.863281 93.164062 322.300781 93.453125 C 322.734375 93.746094 323.140625 94.078125 323.507812 94.445312 C 323.878906 94.816406 324.210938 95.21875 324.503906 95.65625 C 324.792969 96.09375 325.039062 96.550781 325.238281 97.035156 C 325.441406 97.519531 325.59375 98.019531 325.695312 98.535156 C 325.796875 99.046875 325.847656 99.566406 325.847656 100.089844 Z M 325.847656 100.089844 "/></clipPath><clipPath id="0a8fda45c5"><path d="M 295 116 L 307 116 L 307 128 L 295 128 Z M 295 116 "/></clipPath><clipPath id="68552c0541"><path d="M 306.007812 122.226562 C 306.007812 122.570312 305.972656 122.914062 305.90625 123.25 C 305.839844 123.585938 305.742188 123.914062 305.609375 124.234375 C 305.476562 124.550781 305.316406 124.855469 305.125 125.140625 C 304.933594 125.425781 304.714844 125.691406 304.472656 125.933594 C 304.230469 126.175781 303.964844 126.394531 303.679688 126.585938 C 303.390625 126.777344 303.089844 126.9375 302.773438 127.070312 C 302.453125 127.203125 302.125 127.300781 301.789062 127.367188 C 301.449219 127.4375 301.109375 127.46875 300.765625 127.46875 C 300.421875 127.46875 300.082031 127.4375 299.742188 127.367188 C 299.40625 127.300781 299.078125 127.203125 298.761719 127.070312 C 298.441406 126.9375 298.140625 126.777344 297.855469 126.585938 C 297.566406 126.394531 297.300781 126.175781 297.058594 125.933594 C 296.816406 125.691406 296.597656 125.425781 296.40625 125.140625 C 296.214844 124.855469 296.054688 124.550781 295.921875 124.234375 C 295.792969 123.914062 295.691406 123.585938 295.625 123.25 C 295.558594 122.914062 295.523438 122.570312 295.523438 122.226562 C 295.523438 121.882812 295.558594 121.542969 295.625 121.203125 C 295.691406 120.867188 295.792969 120.539062 295.921875 120.222656 C 296.054688 119.902344 296.214844 119.601562 296.40625 119.316406 C 296.597656 119.027344 296.816406 118.765625 297.058594 118.519531 C 297.300781 118.277344 297.566406 118.058594 297.855469 117.867188 C 298.140625 117.675781 298.441406 117.515625 298.761719 117.382812 C 299.078125 117.253906 299.40625 117.152344 299.742188 117.085938 C 300.082031 117.019531 300.421875 116.984375 300.765625 116.984375 C 301.109375 116.984375 301.449219 117.019531 301.789062 117.085938 C 302.125 117.152344 302.453125 117.253906 302.773438 117.382812 C 303.089844 117.515625 303.390625 117.675781 303.679688 117.867188 C 303.964844 118.058594 304.230469 118.277344 304.472656 118.519531 C 304.714844 118.765625 304.933594 119.027344 305.125 119.316406 C 305.316406 119.601562 305.476562 119.902344 305.609375 120.222656 C 305.742188 120.539062 305.839844 120.867188 305.90625 121.203125 C 305.972656 121.542969 306.007812 121.882812 306.007812 122.226562 Z M 306.007812 122.226562 "/></clipPath></defs><g id="9a471eebde"><g clip-rule="nonzero" clip-path="url(#c4f2fcb3cc)"><g clip-rule="nonzero" clip-path="url(#1cd09cdc29)"><path style=" stroke:none;fill-rule:nonzero;fill:#1db954;fill-opacity:1;" d="M 109.359375 112.800781 L 109.359375 282.601562 L 360.921875 282.601562 L 360.921875 112.800781 Z M 109.359375 112.800781 "/></g></g><g clip-rule="nonzero" clip-path="url(#0d8bc4b382)"><g clip-rule="nonzero" clip-path="url(#fa38aef0ef)"><path style=" stroke:none;fill-rule:nonzero;fill:#1db954;fill-opacity:1;" d="M 153.609375 177.339844 L 153.609375 187.175781 L 215.449219 187.175781 L 215.449219 177.339844 Z M 153.609375 177.339844 "/></g></g><g clip-rule="nonzero" clip-path="url(#d1bcd6153d)"><g clip-rule="nonzero" clip-path="url(#4225bb3df9)"><path style=" stroke:none;fill-rule:nonzero;fill:#1db954;fill-opacity:1;" d="M 221.738281 177.339844 L 221.738281 187.175781 L 251.867188 187.175781 L 251.867188 177.339844 Z M 221.738281 177.339844 "/></g></g><g clip-rule="nonzero" clip-path="url(#d33df2b4bd)"><g clip-rule="nonzero" clip-path="url(#8feb0e03b5)"><path style=" stroke:none;fill-rule:nonzero;fill:#1db954;fill-opacity:1;" d="M 220.035156 195.59375 L 220.035156 205.429688 L 235.957031 205.429688 L 235.957031 195.59375 Z M 220.035156 195.59375 "/></g></g><g clip-rule="nonzero" clip-path="url(#8e7a4da961)"><g clip-rule="nonzero" clip-path="url(#256911cf25)"><path style=" stroke:none;fill-rule:nonzero;fill:#1db954;fill-opacity:1;" d="M 271.359375 213.855469 L 271.359375 223.691406 L 289.292969 223.691406 L 289.292969 213.855469 Z M 271.359375 213.855469 "/></g></g><g clip-rule="nonzero" clip-path="url(#0422d6f0c0)"><g clip-rule="nonzero" clip-path="url(#03d808428e)"><path style=" stroke:none;fill-rule:nonzero;fill:#1db954;fill-opacity:1;" d="M 251.210938 250.375 L 251.210938 260.210938 L 269.148438 260.210938 L 269.148438 250.375 Z M 251.210938 250.375 "/></g></g><g clip-rule="nonzero" clip-path="url(#a2accf375c)"><g clip-rule="nonzero" clip-path="url(#454b62c3fa)"><path style=" stroke:none;fill-rule:nonzero;fill:#1db954;fill-opacity:1;" d="M 13.554688 227.015625 L 13.554688 247.035156 L 138.996094 247.035156 L 138.996094 227.015625 Z M 13.554688 227.015625 "/></g></g><g clip-rule="nonzero" clip-path="url(#a1dab8f158)"><g clip-rule="nonzero" clip-path="url(#eb80e752f6)"><path style=" stroke:none;fill-rule:nonzero;fill:#1db954;fill-opacity:1;" d="M 144.882812 232.113281 L 144.882812 241.953125 L 219.890625 241.953125 L 219.890625 232.113281 Z M 144.882812 232.113281 "/></g></g><g clip-rule="nonzero" clip-path="url(#ac4fd71c42)"><g clip-rule="nonzero" clip-path="url(#dc310a5b12)"><path style=" stroke:none;fill-rule:nonzero;fill:#1db954;fill-opacity:1;" d="M 59.636719 245.273438 L 59.636719 265.296875 L 243.757812 265.296875 L 243.757812 245.273438 Z M 59.636719 245.273438 "/></g></g><g clip-rule="nonzero" clip-path="url(#be1e993843)"><g clip-rule="nonzero" clip-path="url(#34892c38fd)"><path style=" stroke:none;fill-rule:nonzero;fill:#1db954;fill-opacity:1;" d="M 86.792969 172.242188 L 86.792969 192.269531 L 142.484375 192.269531 L 142.484375 172.242188 Z M 86.792969 172.242188 "/></g></g><g clip-rule="nonzero" clip-path="url(#f9765c2f60)"><g clip-rule="nonzero" clip-path="url(#b21a98b9b8)"><path style=" stroke:none;fill-rule:nonzero;fill:#1db954;fill-opacity:1;" d="M 27.695312 190.5 L 27.695312 210.53125 L 215.449219 210.53125 L 215.449219 190.5 Z M 27.695312 190.5 "/></g></g><g clip-rule="nonzero" clip-path="url(#2510c824d8)"><g clip-rule="nonzero" clip-path="url(#7977c3d0fa)"><path style=" stroke:none;fill-rule:nonzero;fill:#1db954;fill-opacity:1;" d="M 49.617188 208.753906 L 49.617188 228.78125 L 265.089844 228.78125 L 265.089844 208.753906 Z M 49.617188 208.753906 "/></g></g><g clip-rule="nonzero" clip-path="url(#ed26df234b)"><g clip-rule="nonzero" clip-path="url(#ca83f851b4)"><path style=" stroke:none;fill-rule:nonzero;fill:#1db954;fill-opacity:1;" d="M 308.777344 130.675781 L 308.777344 160.785156 L 338.890625 160.785156 L 338.890625 130.675781 Z M 308.777344 130.675781 "/></g></g><g clip-rule="nonzero" clip-path="url(#689bd1e15f)"><g clip-rule="nonzero" clip-path="url(#4090748127)"><path style=" stroke:none;fill-rule:nonzero;fill:#1db954;fill-opacity:1;" d="M 309.882812 92.109375 L 309.882812 108.074219 L 325.847656 108.074219 L 325.847656 92.109375 Z M 309.882812 92.109375 "/></g></g><g clip-rule="nonzero" clip-path="url(#0a8fda45c5)"><g clip-rule="nonzero" clip-path="url(#68552c0541)"><path style=" stroke:none;fill-rule:nonzero;fill:#1db954;fill-opacity:1;" d="M 295.523438 116.984375 L 295.523438 127.46875 L 306.007812 127.46875 L 306.007812 116.984375 Z M 295.523438 116.984375 "/></g></g></g></svg>